HIERARCHY
ROOT Hips
{
  OFFSET 1.44925e-005 102.336 -0.101585
  CHANNELS 6 Xposition Yposition Zposition Zrotation Xrotation Yrotation
  JOINT LeftUpLeg
  {
    OFFSET 8.9458 -8.66707 0.101652
    CHANNELS 3 Zrotation Xrotation Yrotation
    JOINT LeftLeg
    {
      OFFSET 0 -44.4227 1.3727
      CHANNELS 3 Zrotation Xrotation Yrotation
      JOINT LeftFoot
      {
        OFFSET -0.253549 -42.0924 -1.46059
        CHANNELS 3 Zrotation Xrotation Yrotation
        JOINT LeftToes
        {
          OFFSET -0.04 -4.41509 8.4991
          CHANNELS 3 Zrotation Xrotation Yrotation
          End Site
          {
            OFFSET 0.08 -0.047448 9.77979
          }
        }
      }
    }
  }
  JOINT Spine
  {
    OFFSET 0 11.8905 0
    CHANNELS 3 Zrotation Xrotation Yrotation
    JOINT Spine1
    {
      OFFSET 0 25.6574 0.127663
      CHANNELS 3 Zrotation Xrotation Yrotation
      JOINT RightShoulder
      {
        OFFSET -8.99 -0.362252 -0.22
        CHANNELS 3 Zrotation Xrotation Yrotation
        JOINT RightArm
        {
          OFFSET -10.2827 -0.00338 0.322123
          CHANNELS 3 Zrotation Xrotation Yrotation
          JOINT RightForeArm
          {
            OFFSET -26.364 0.099144 -1.42434
            CHANNELS 3 Zrotation Xrotation Yrotation
            JOINT RightHand
            {
              OFFSET -22.0324 0.085362 1.02216
              CHANNELS 3 Zrotation Xrotation Yrotation
              End Site
              {
                OFFSET -13.3284 -0.6 1.50291
              }
            }
          }
        }
      }
      JOINT LeftShoulder1
      {
        OFFSET 8.99 -0.362252 -0.22
        CHANNELS 3 Zrotation Xrotation Yrotation
        JOINT LeftArm
        {
          OFFSET 10.2827 -0.00337999 0.322123
          CHANNELS 3 Zrotation Xrotation Yrotation
          JOINT LeftForeArm
          {
            OFFSET 26.2597 0.099144 -1.42434
            CHANNELS 3 Zrotation Xrotation Yrotation
            JOINT LeftHand
            {
              OFFSET 22.0902 0.085362 1.02216
              CHANNELS 3 Zrotation Xrotation Yrotation
              End Site
              {
                OFFSET 13.419 -0.6 1.50291
              }
            }
          }
        }
      }
      JOINT Head
      {
        OFFSET 0 8.73416 0.011341
        CHANNELS 3 Zrotation Xrotation Yrotation
        End Site
        {
          OFFSET -0.29 12.7742 2.51395
        }
      }
    }
  }
  JOINT RightUpLeg
  {
    OFFSET -8.9458 -8.66707 0.101652
    CHANNELS 3 Zrotation Xrotation Yrotation
    JOINT RightLeg
    {
      OFFSET 0 -44.4227 1.3727
      CHANNELS 3 Zrotation Xrotation Yrotation
      JOINT RightFoot
      {
        OFFSET 0.253549 -42.0924 -1.46059
        CHANNELS 3 Zrotation Xrotation Yrotation
        JOINT RightToes
        {
          OFFSET 0.04 -4.41509 8.4991
          CHANNELS 3 Zrotation Xrotation Yrotation
          End Site
          {
            OFFSET -0.08 -0.137448 9.77979
          }
        }
      }
    }
  }
}
MOTION
Frames:	19
Frame Time:	0.0333333
189.873 103.026 7.86388 -4.285 -0.424982 -90.6668 -0.399933 3.32419 2.45017 0.247316 8.47422 16.7186 -2.99274 -11.4239 -0.0448903 -1.35936e-009 8.75222e-006 -1.47691e-008 2.45721 5.499 0.378788 -2.32584 0.318529 0.979037 36.8007 1.76639 0.145517 43.0153 -15.1894 10.2987 9.11567 42.9355 6.51445 -6.98336 9.65258 -0.893923 -44.0116 3.5267 -3.46902 -30.8307 -14.5349 -3.0876 -7.22682 41.5095 -10.4476 5.82328 9.61819 -0.917488 -2.94748 -6.76472 -4.54549 -1.12548 3.30947 -4.60769 0.019565 10.4217 -9.38365 3.26794 -13.3893 -0.0404365 0.0462048 0.000530889 0.662642 
189.861 103.026 7.87208 -4.28251 -0.439522 -90.6572 -0.431528 3.33561 2.42357 0.247887 8.45486 16.7509 -2.93255 -11.4138 -0.0448887 -1.35936e-009 8.75222e-006 -1.47691e-008 2.42137 5.4559 0.380905 -2.2782 0.371232 0.974304 36.7797 1.76639 0.145517 43.0334 -15.2312 10.3275 9.16002 42.5938 6.50692 -5.95489 9.70816 -1.26874 -44.0546 3.53147 -3.46904 -30.7964 -14.4724 -3.09099 -7.37732 41.2158 -10.326 5.82328 9.61819 -0.917488 -3.62201 -7.0181 -5.14951 -1.14969 3.30014 -4.62672 0.0144766 10.4503 -9.38591 3.30269 -13.4027 -0.0404387 0.0462048 0.000530889 0.662642 
189.844 103.026 7.88139 -4.29172 -0.452728 -90.6415 -0.452686 3.3514 2.40755 0.245361 8.45891 16.7511 -2.91091 -11.4189 -0.0448895 -1.35936e-009 8.75222e-006 -1.47691e-008 2.32381 5.37879 0.393538 -2.12102 0.511247 0.959065 36.7057 1.76639 0.145517 43.0795 -15.3206 10.3866 9.1933 42.3003 6.49665 -4.60428 9.7711 -1.72288 -44.1848 3.54435 -3.46908 -30.712 -14.4376 -3.14266 -7.59822 40.8485 -10.1314 5.82328 9.61819 -0.917488 -4.13977 -7.28623 -5.57068 -1.16613 3.31197 -4.64117 0.00855817 10.4744 -9.39605 3.31865 -13.4228 -0.0403455 0.0462048 0.000530889 0.662642 
189.832 103.026 7.88871 -4.30602 -0.442788 -90.6219 -0.436782 3.36291 2.42689 0.237147 8.48282 16.7056 -2.94055 -11.4397 -0.0448928 -1.35936e-009 8.75222e-006 -1.47691e-008 2.24456 5.29803 0.40289 -1.96554 0.678249 0.938767 36.6355 1.76639 0.145517 43.1258 -15.388 10.4446 9.16478 42.3514 6.51047 -4.15876 9.78786 -1.83179 -44.307 3.5524 -3.46598 -30.6345 -14.4106 -3.21349 -7.70371 40.6553 -10.0435 5.82328 9.61819 -0.917488 -3.94934 -7.20718 -5.45159 -1.15544 3.34553 -4.63539 0.00707115 10.4619 -9.41581 3.29879 -13.4277 -0.0399694 0.0462048 0.000530889 0.662642 
189.822 103.026 7.8979 -4.29632 -0.427505 -90.6073 -0.415139 3.35215 2.4486 0.22369 8.49592 16.6684 -2.94573 -11.4556 -0.0448953 -1.35936e-009 8.75222e-006 -1.47691e-008 2.23547 5.20799 0.393758 -1.90827 0.812805 0.917814 36.6101 1.76639 0.145517 43.1625 -15.4369 10.5126 9.15333 42.5192 6.48636 -4.42865 9.77549 -1.69535 -44.3371 3.5532 -3.45522 -30.6176 -14.337 -3.24372 -7.67342 40.5771 -10.1007 5.82328 9.61819 -0.917488 -3.2762 -6.53632 -5.29961 -1.14383 3.35561 -4.62831 0.0137466 10.437 -9.42808 3.29577 -13.4201 -0.0396046 0.0462048 0.000530889 0.662642 
189.813 103.026 7.90877 -4.25703 -0.423711 -90.6027 -0.415411 3.31099 2.44491 0.218662 8.50082 16.6698 -2.91178 -11.4637 -0.0448966 -1.35936e-009 8.75222e-006 -1.47691e-008 2.24651 5.13348 0.379081 -1.8946 0.876471 0.899538 36.6114 1.76639 0.145517 43.2063 -15.5549 10.6179 9.24134 42.6444 6.33393 -4.53184 9.7684 -1.5681 -44.3137 3.55108 -3.45087 -30.6546 -14.3343 -3.23293 -7.63492 40.5625 -10.1474 5.82328 9.61819 -0.917488 -2.59352 -5.65987 -5.39878 -1.14507 3.32271 -4.62645 0.0162165 10.4317 -9.42648 3.32415 -13.4217 -0.0392517 0.0462048 0.000530889 0.662642 
189.81 103.026 7.91805 -4.21751 -0.427903 -90.6046 -0.429579 3.26239 2.42688 0.223031 8.51498 16.6873 -2.89204 -11.474 -0.0448983 -1.35936e-009 8.75222e-006 -1.47691e-008 2.20983 5.12911 0.381834 -1.82863 0.857712 0.888277 36.6184 1.76639 0.146868 43.2287 -15.7263 10.7219 9.35567 42.9043 6.12053 -4.33881 9.77104 -1.43948 -44.3153 3.5488 -3.45006 -30.694 -14.4542 -3.22634 -7.66887 40.6189 -10.0839 5.82328 9.61819 -0.917488 -2.26138 -5.36261 -5.4246 -1.15165 3.28105 -4.61527 0.00730423 10.4419 -9.42807 3.33426 -13.4371 -0.0389088 0.0462048 0.000530889 0.662642 
189.808 103.026 7.92579 -4.2003 -0.434832 -90.5925 -0.44527 3.23884 2.4084 0.231074 8.52635 16.6917 -2.91498 -11.4832 -0.0448997 -1.35936e-009 8.75222e-006 -1.47691e-008 2.11854 5.17842 0.403392 -1.69014 0.819255 0.882434 36.5953 1.76639 0.15319 43.2182 -15.7863 10.7461 9.35609 43.3217 6.04558 -4.4537 9.761 -1.23725 -44.3719 3.54903 -3.45098 -30.681 -14.4545 -3.24598 -7.7109 40.604 -10.0376 5.82328 9.61819 -0.917488 -2.28615 -5.80046 -5.15434 -1.15828 3.2657 -4.60242 -0.00859666 10.4469 -9.45004 3.30308 -13.4479 -0.03857 0.0462048 0.000530889 0.662642 
189.799 103.026 7.93312 -4.19481 -0.44771 -90.5561 -0.464532 3.24471 2.3867 0.238663 8.51045 16.6822 -2.95442 -11.4795 -0.0448991 -1.35936e-009 8.75222e-006 -1.47691e-008 2.00462 5.21331 0.432174 -1.50543 0.834141 0.876527 36.466 1.76639 0.160331 43.2654 -15.6612 10.6797 9.24039 43.5189 6.17835 -5.0283 9.73603 -1.10567 -44.4916 3.55426 -3.45266 -30.593 -14.1976 -3.2778 -7.69662 40.4103 -10.1171 5.82328 9.61819 -0.917488 -2.40758 -6.31639 -4.90634 -1.16928 3.26876 -4.61241 -0.0122592 10.4451 -9.48209 3.27551 -13.4453 -0.0382311 0.0462048 0.000530889 0.662642 
189.784 103.026 7.93849 -4.1806 -0.462001 -90.5231 -0.48294 3.25279 2.36638 0.240708 8.47646 16.6758 -2.96946 -11.4653 -0.0448969 -1.35936e-009 8.75222e-006 -1.47691e-008 1.92461 5.25672 0.459823 -1.34649 0.829202 0.875029 36.2465 1.76638 0.163245 43.4204 -15.5014 10.5855 9.14341 43.3206 6.35337 -5.50789 9.71945 -1.13653 -44.6415 3.56663 -3.45407 -30.4757 -13.983 -3.28867 -7.67195 40.2555 -10.1963 5.82328 9.61819 -0.917488 -2.47465 -6.40398 -4.98999 -1.18821 3.26254 -4.63276 -0.0058669 10.4473 -9.50148 3.29046 -13.4433 -0.0378916 0.0462048 0.000530889 0.662642 
189.774 103.026 7.94365 -4.14935 -0.466889 -90.5182 -0.49255 3.23218 2.35295 0.242151 8.45728 16.6825 -2.93766 -11.4549 -0.0448952 -1.35936e-009 8.75222e-006 -1.47691e-008 1.9552 5.37471 0.470954 -1.34564 0.678936 0.886806 36.1219 1.76681 0.164501 43.5466 -15.4725 10.5101 9.12315 43.1152 6.4131 -5.50085 9.72042 -1.15416 -44.7114 3.57603 -3.45416 -30.413 -14.0256 -3.24161 -7.67108 40.3277 -10.1775 5.82328 9.61819 -0.917488 -2.52966 -6.27099 -5.23511 -1.19671 3.23399 -4.6315 -0.00758804 10.451 -9.50619 3.3266 -13.4506 -0.0375501 0.0462048 0.000530889 0.662642 
189.769 103.026 7.9564 -4.10336 -0.467495 -90.5152 -0.507846 3.18062 2.32751 0.251321 8.46003 16.7024 -2.88103 -11.4522 -0.0448948 -1.35936e-009 8.75222e-006 -1.47691e-008 2.09217 5.48221 0.454642 -1.5193 0.493755 0.904526 36.1899 1.76879 0.164473 43.5225 -15.5381 10.461 9.10363 43.2213 6.415 -5.22389 9.7267 -1.04913 -44.6618 3.57162 -3.45137 -30.4152 -14.04 -3.15966 -7.64137 40.3931 -10.2 5.82328 9.61819 -0.917488 -2.49073 -6.2083 -5.24667 -1.20553 3.19001 -4.62656 -0.00911999 10.4545 -9.50735 3.34035 -13.4588 -0.0372024 0.0462048 0.000530889 0.662642 
189.757 103.026 7.97971 -4.05664 -0.480553 -90.4924 -0.548546 3.13511 2.27696 0.272336 8.45841 16.7358 -2.86546 -11.4491 -0.0448943 -1.35936e-009 8.75222e-006 -1.47691e-008 2.20289 5.4334 0.440941 -1.65659 0.518741 0.918439 36.2509 1.76924 0.163534 43.4711 -15.5522 10.438 9.02239 43.341 6.49647 -5.05636 9.73127 -1.001 -44.6468 3.56814 -3.44691 -30.4026 -13.898 -3.15061 -7.58649 40.3038 -10.2982 5.82328 9.61819 -0.917488 -2.18373 -6.12123 -4.91721 -1.24427 3.15025 -4.66107 0.0113158 10.458 -9.49258 3.31967 -13.4656 -0.0368454 0.0462048 0.000530889 0.662642 
189.73 103.026 8.00512 -4.03216 -0.504003 -90.4855 -0.60173 3.13989 2.22956 0.290723 8.43118 16.7822 -2.9221 -11.4461 -0.0448938 -1.35936e-009 8.75222e-006 -1.47691e-008 2.21097 5.31258 0.467319 -1.62053 0.685461 0.939343 36.1239 1.7656 0.162036 43.5341 -15.4504 10.4098 8.93494 43.0572 6.6626 -5.0283 9.73753 -1.15067 -44.7765 3.58256 -3.45557 -30.3513 -14.0655 -3.26296 -7.64297 40.4429 -10.1942 5.82328 9.61819 -0.917488 -1.85974 -5.97774 -4.58274 -1.30422 3.1394 -4.72207 0.0422593 10.4573 -9.43922 3.29424 -13.4778 -0.0364773 0.0462048 0.000530889 0.662642 
189.694 103.026 8.02314 -4.03838 -0.51971 -90.5102 -0.63846 3.19771 2.21264 0.297611 8.38396 16.8205 -2.98079 -11.4435 -0.0448934 -1.35936e-009 8.75222e-006 -1.47691e-008 2.23322 5.34565 0.50173 -1.60882 0.657966 0.972755 36.0014 1.75837 0.156021 43.5724 -15.2666 10.3199 8.90771 42.5036 6.81739 -4.90227 9.748 -1.32548 -44.879 3.5976 -3.46944 -30.3505 -14.6854 -3.3614 -7.84542 40.9739 -9.80818 5.82328 9.61819 -0.917488 -2.07253 -6.08038 -4.65225 -1.34714 3.17465 -4.76739 0.0580431 10.4366 -9.36889 3.30196 -13.4865 -0.036094 0.0462048 0.000530889 0.662642 
189.652 103.026 8.03283 -4.05501 -0.527399 -90.4979 -0.656951 3.26515 2.20661 0.303669 8.3346 16.8119 -2.95475 -11.4419 -0.0448932 -1.35936e-009 8.75222e-006 -1.47691e-008 2.3698 5.53085 0.477753 -1.8188 0.379801 0.991094 36.1474 1.75848 0.143293 43.3931 -15.0712 10.1713 8.91713 42.0853 6.91975 -4.58128 9.76039 -1.36193 -44.757 3.58626 -3.46566 -30.4411 -15.0608 -3.29042 -7.97817 41.3108 -9.55698 5.82328 9.61819 -0.917488 -2.83948 -6.58615 -5.07425 -1.36668 3.24528 -4.80403 0.0686347 10.3893 -9.34135 3.33419 -13.4837 -0.0356915 0.0462048 0.000530889 0.662642 
189.613 103.026 8.03721 -4.05549 -0.540711 -90.4174 -0.674394 3.29819 2.18726 0.313784 8.29887 16.7587 -2.87778 -11.441 -0.044893 -1.35936e-009 8.75222e-006 -1.47691e-008 2.50495 5.68231 0.409915 -2.07448 0.11289 0.973434 36.4266 1.76697 0.138602 43.113 -14.9277 10.0329 8.91816 41.8732 6.99096 -4.27283 9.77151 -1.37623 -44.5292 3.55901 -3.44669 -30.5461 -14.8469 -3.11082 -7.91108 41.1244 -9.68614 5.82328 9.61819 -0.917488 -3.44437 -7.13943 -5.32701 -1.38364 3.29933 -4.84515 0.0864238 10.3566 -9.37574 3.33974 -13.4985 -0.0352713 0.0462048 0.000530889 0.662642 
189.589 103.026 8.03885 -4.03489 -0.559378 -90.3564 -0.692642 3.28823 2.16982 0.315105 8.29174 16.7234 -2.86251 -11.4489 -0.0448943 -1.35936e-009 8.75222e-006 -1.47691e-008 2.50781 5.7879 0.374717 -2.13211 -0.0756145 0.947147 36.5227 1.77442 0.147705 42.9901 -14.844 9.93468 8.91553 41.7371 7.03468 -4.18688 9.77674 -1.4659 -44.4104 3.54452 -3.4361 -30.6311 -14.7487 -2.99579 -7.82809 41.049 -9.8036 5.82328 9.61819 -0.917488 -3.34761 -7.18519 -5.1327 -1.3951 3.28591 -4.84642 0.0779987 10.3923 -9.42726 3.31529 -13.556 -0.0348342 0.0462048 0.000530889 0.662642 
189.574 103.025 8.04182 -4.01022 -0.570232 -90.3695 -0.701131 3.26 2.17156 0.305818 8.32123 16.7328 -2.92322 -11.4868 -0.0449003 -1.35936e-009 8.75222e-006 -1.47691e-008 2.45445 5.95107 0.374206 -2.08349 -0.322217 0.932516 36.4481 1.77656 0.15828 43.0287 -14.7816 9.85757 8.91864 41.7705 7.03747 -4.20413 9.77545 -1.45941 -44.3574 3.54289 -3.44084 -30.7496 -15.199 -2.95381 -7.87827 41.5222 -9.61818 5.82328 9.61819 -0.917488 -2.9047 -6.5704 -4.98951 -1.38844 3.24326 -4.79675 0.0331311 10.4549 -9.45609 3.32178 -13.6136 -0.0343711 0.0462048 0.000530889 0.662642 
